<?xml version="1.0" encoding="UTF-8"?>
<svg version="1.1" xmlns="http://www.w3.org/2000/svg" width="512" height="512">
<path d="M0 0 C3.61210112 2.97467151 5.54204951 6.47961634 7.75 10.5625 C11.37919187 17.08962234 15.385429 23.11415183 20 29 C20.40589355 29.52480957 20.81178711 30.04961914 21.22998047 30.59033203 C29.75767227 41.52516303 40.20827847 52.24518576 54 56 C68.46995481 57.72407972 77.74506889 53.58360366 89 45 C90.5159375 43.88625 90.5159375 43.88625 92.0625 42.75 C103.05593126 33.27397193 111.29628893 19.7227715 118.140625 7.06640625 C120.75449143 2.75572316 122.54610442 0.42295144 127.4375 -1 C131 -1 131 -1 133.56568909 0.49479675 C136.67448382 3.69412623 137.51414654 6.86364058 138.51147461 11.08325195 C138.8175371 12.27667819 138.8175371 12.27667819 139.12978268 13.49421406 C139.55662944 15.16505307 139.97558271 16.83792674 140.38697433 18.51263809 C140.96603905 20.86220286 141.56863391 23.20394588 142.18289185 25.54452515 C143.41539307 30.2469639 144.61690116 34.95702293 145.81640625 39.66796875 C146.26972727 41.44264868 146.72319742 43.21729052 147.17680359 44.99189758 C148.38901118 49.73653399 149.59875607 54.48179499 150.80793762 59.22720337 C151.828513 63.23112133 152.85058463 67.23465682 153.8725872 71.23821068 C161.11623825 99.61653454 168.31378528 128.00641646 175.48867798 156.40219116 C181.35455097 179.61566656 187.27947913 202.81323485 193.25 226 C200.80861095 255.35499241 208.26656715 284.73491138 215.6875 314.125 C215.94328323 315.13782043 216.19906647 316.15064087 216.46260071 317.19415283 C217.2183413 320.1866991 217.973937 323.17928192 218.72949219 326.171875 C218.97362791 327.13860012 219.21776363 328.10532524 219.46929741 329.10134506 C220.66149691 333.82402872 221.85114422 338.54732852 223.03530884 343.27203369 C224.95175273 350.91383871 226.87084624 358.55361476 228.88150692 366.17127419 C229.65373127 369.10000243 230.4150933 372.03150271 231.17551613 374.96331406 C231.68299167 376.90042478 232.20702047 378.83317637 232.7318573 380.76565552 C236.2735066 394.46456455 236.46940761 407.53972794 229.22265625 420.07421875 C226.92970539 423.47735065 224.50665743 426.75365934 222 430 C221.44892578 430.71945801 220.89785156 431.43891602 220.33007812 432.18017578 C216.82794748 436.74387779 213.29491686 441.28208312 209.7265625 445.79418945 C208.52978409 447.32316188 207.348466 448.86431368 206.1796875 450.41479492 C198.62464434 460.3928658 189.28499199 466.44965016 176.78665161 468.5365448 C173.04078821 468.99500786 169.44761199 469.13133213 165.67529297 469.1418457 C164.98004517 469.14532013 164.28479736 469.14879456 163.56848145 469.15237427 C162.07186542 469.1596771 160.57523895 469.16505133 159.07860947 469.16866493 C156.70743981 469.17588709 154.33647037 469.19159233 151.96536255 469.21000671 C145.22839966 469.26223215 138.49155593 469.31049176 131.75439453 469.32592773 C127.6223284 469.33601205 123.49078181 469.36533374 119.35892105 469.40724754 C117.78892063 469.41954209 116.21884687 469.42468161 114.6487999 469.42244911 C112.45394065 469.42009416 110.26057509 469.4422691 108.06591797 469.4699707 C106.19563431 469.47877007 106.19563431 469.47877007 104.28756714 469.48774719 C100.42015543 470.09034858 98.83479088 471.37719714 96 474 C88.37161295 477.61202779 81.22500089 477.93488901 73.28125 475.1328125 C69.87963733 473.44365553 67.33199097 471.06333665 64.62890625 468.42578125 C63.10997177 466.78045588 63.10997177 466.78045588 61 467 C59.9171875 468.11375 59.9171875 468.11375 58.8125 469.25 C53.46837888 474.47536287 48.25492444 476.57450756 40.875 477.3125 C35.54531058 476.88268634 28.34513667 475.57007696 24.58629936 471.45070034 C21.76802466 468.87333558 17.85145915 469.58830792 14.21607971 469.61473083 C13.3072675 469.60949514 12.39845528 469.60425944 11.46210331 469.59886509 C8.40371997 469.58484886 5.34575529 469.59221915 2.28735352 469.59936523 C0.09950891 469.59362543 -2.08833253 469.58654379 -4.27616882 469.57821655 C-8.99557363 469.563074 -13.71486511 469.55733177 -18.43429375 469.55874443 C-25.90239137 469.56077482 -33.3703364 469.54123073 -40.83839417 469.51856995 C-51.31567776 469.48895326 -61.79294661 469.46837085 -72.27026367 469.45629883 C-73.26784389 469.45514459 -73.26784389 469.45514459 -74.28557725 469.45396704 C-76.97948746 469.45086543 -79.67339769 469.4477826 -82.36730796 469.444727 C-89.76367386 469.43621451 -97.16003544 469.42530899 -104.55639648 469.41333008 C-105.21791049 469.41226206 -105.87942449 469.41119404 -106.56098437 469.41009366 C-117.6171977 469.3919588 -128.67338186 469.36589139 -139.72956711 469.33519894 C-147.1466415 469.31531853 -154.56363662 469.30569992 -161.98073661 469.30424678 C-166.6083998 469.30148641 -171.23601967 469.29063347 -175.86366463 469.27773666 C-178.00171124 469.2734749 -180.13976779 469.2725848 -182.27781677 469.27541161 C-209.68334355 469.30747326 -209.68334355 469.30747326 -220.375 463.6875 C-221.49648437 463.11386719 -222.61796875 462.54023438 -223.7734375 461.94921875 C-233.37290918 456.15002218 -240.8086717 446.84416531 -244 436 C-247.21430631 420.22824829 -245.37636446 407.86548505 -237 394 C-230.08955611 384.50064551 -219.50905964 378.29343397 -208.125 375.75 C-191.47026223 373.12646887 -173.50404929 373.85400951 -159 383 C-149.57462857 389.93081676 -142.10936794 399.11736556 -139.44140625 410.6953125 C-138.85402546 415.09287134 -138.60386086 419.44136068 -138.5 423.875 C-138.4537146 425.10669922 -138.4537146 425.10669922 -138.40649414 426.36328125 C-138.40604698 430.72043191 -138.59625932 432.47715581 -141.34375 436.03515625 C-144 438 -144 438 -147 438.5625 C-150.65907504 437.87642343 -152.35167676 436.57265686 -155 434 C-156.23602289 431.52795422 -156.15343786 429.3652228 -156.23925781 426.64208984 C-156.59188604 416.32888968 -158.20172047 407.45168933 -166 400 C-174.25373215 394.32358268 -182.51822032 392.61798115 -192.375 392.6875 C-193.21135986 392.69313965 -194.04771973 392.6987793 -194.90942383 392.70458984 C-204.91669826 392.90132653 -212.61075546 394.95635487 -220 402 C-226.28181591 409.0970134 -227.46985122 416.18070898 -227.3125 425.5234375 C-226.61938295 433.23436463 -222.88863094 439.96334119 -217 445 C-207.96083351 450.68260304 -199.83115221 451.14791133 -189.39501953 451.11352539 C-188.23346848 451.11367142 -187.07191742 451.11381744 -185.87516785 451.1139679 C-182.04436359 451.11327247 -178.21360824 451.10549734 -174.3828125 451.09765625 C-171.72337766 451.09579076 -169.06394552 451.09431826 -166.4045105 451.09336853 C-160.12545092 451.09026537 -153.84640883 451.0820657 -147.56735694 451.07201904 C-140.41620757 451.06082634 -133.26505734 451.05533951 -126.11390138 451.05032361 C-111.40925865 451.03988221 -96.70462963 451.02230247 -82 451 C-82.33209473 450.55720703 -82.66418945 450.11441406 -83.00634766 449.65820312 C-88.67089844 442.10546875 -94.33544922 434.55273438 -100 427 C-100.46517029 426.38167297 -100.93034058 425.76334595 -101.40960693 425.12628174 C-109.32548551 414.53427728 -111.79771034 404.15138784 -111 391 C-110.3060126 386.73909847 -109.26394753 382.60326114 -108.16796875 378.4296875 C-107.71366486 376.62967033 -107.71366486 376.62967033 -107.25018311 374.79328918 C-106.41799967 371.50821489 -105.57320708 368.22688775 -104.72263718 364.94655991 C-103.80724676 361.40300852 -102.90876719 357.85516658 -102.00805664 354.30786133 C-100.07941415 346.72480654 -98.13071081 339.14700678 -96.17749023 331.57025146 C-95.03108247 327.12270144 -93.88886714 322.67408379 -92.74804688 318.22509766 C-92.56403666 317.50754932 -92.38002645 316.79000099 -92.19044018 316.05070877 C-91.81865735 314.60089139 -91.44688555 313.15107119 -91.07512474 311.70124817 C-88.57588627 301.95570148 -86.07298863 292.21110519 -83.56323242 282.46826172 C-77.13295811 257.49788701 -70.80540628 232.50216424 -64.5 207.5 C-53.45797131 163.7192256 -53.45797131 163.7192256 -48.0546875 142.6875 C-47.8583201 141.92314322 -47.66195271 141.15878643 -47.45963478 140.37126732 C-45.53239466 132.87186456 -43.60098613 125.37354405 -41.66484928 117.87643337 C-37.38280136 101.2917446 -33.1607624 84.69382185 -29.024086 68.07221603 C-28.29783367 65.15625182 -27.56988554 62.24071684 -26.84124756 59.3253479 C-26.60280876 58.37129877 -26.36436996 57.41724964 -26.11870575 56.43428993 C-25.63985038 54.51854744 -25.16091294 52.60282545 -24.6818924 50.68712425 C-23.28217232 45.08472597 -21.89416386 39.47958699 -20.51465511 33.87217999 C-19.6596957 30.40819822 -18.79415826 26.94692271 -17.92580605 23.48627663 C-17.523877 21.87479529 -17.12648313 20.26217509 -16.73393822 18.64838219 C-16.1945742 16.43325626 -15.63940782 14.2226685 -15.08032227 12.01245117 C-14.77344986 10.7722673 -14.46657745 9.53208344 -14.15040588 8.25431824 C-11.37736043 0.40980657 -7.98624653 -1.79002077 0 0 Z M-1 31 C-3.28210579 36.78364118 -5.02416469 42.52493174 -6.51757812 48.55615234 C-6.86810855 49.94751844 -6.86810855 49.94751844 -7.22572041 51.36699295 C-7.99854644 54.43890852 -8.76485207 57.51241251 -9.53125 60.5859375 C-10.07952164 62.76975609 -10.62825305 64.9534593 -11.17741394 67.13705444 C-12.34654903 71.78894969 -13.51301491 76.44150245 -14.67733765 81.09460449 C-17.44126774 92.13916795 -20.21942072 103.18015697 -22.99692345 114.22131348 C-23.61741044 116.68810952 -24.23773169 119.15494726 -24.85788918 121.62182617 C-29.88867727 141.63292362 -34.97956351 161.62762152 -40.13461304 181.60703278 C-47.77652897 211.22678596 -55.28942809 240.87812871 -62.76628113 270.53995514 C-70.69016751 301.97510206 -78.68289348 333.39155279 -86.78386593 364.78155708 C-87.54325898 367.72459971 -88.3017917 370.66786378 -89.06027412 373.6111412 C-89.57326149 375.59977999 -90.08782605 377.58800573 -90.6025238 379.57620239 C-90.90634476 380.75455658 -91.21016571 381.93291077 -91.52319336 383.14697266 C-91.78611679 384.16393219 -92.04904022 385.18089172 -92.31993103 386.22866821 C-94.58326298 395.45191476 -94.8326685 403.55531961 -89.83789062 411.95410156 C-88.48830649 413.85265188 -87.07935711 415.68051948 -85.625 417.5 C-84.55202226 418.88146299 -83.47910789 420.26297519 -82.40625 421.64453125 C-81.5709375 422.70728271 -81.5709375 422.70728271 -80.71875 423.79150391 C-78.95954333 426.05198452 -77.24128434 428.33886011 -75.53125 430.63671875 C-74.96196777 431.39726562 -74.39268555 432.1578125 -73.80615234 432.94140625 C-72.71393369 434.40065859 -71.62549388 435.86274972 -70.54150391 437.328125 C-64.89479668 444.79234926 -58.5649473 450.48780873 -49 452 C-46.88442537 452.08500091 -44.76644723 452.11776843 -42.64916992 452.11352539 C-41.3882402 452.11344986 -40.12731049 452.11337433 -38.82817078 452.11329651 C-37.46226969 452.10819069 -36.09636902 452.1029747 -34.73046875 452.09765625 C-33.32513988 452.0957897 -31.91981035 452.09436692 -30.51448059 452.09336853 C-26.82705875 452.089562 -23.1396767 452.07974774 -19.45227051 452.06866455 C-15.68498269 452.05841025 -11.9176884 452.05386232 -8.15039062 452.04882812 C-0.766909 452.0381237 6.61653991 452.0210698 14 452 C13.37919991 444.99462227 12.04600663 438.38882224 10.3671875 431.56567383 C10.09864456 430.45497025 9.83010162 429.34426666 9.55342102 428.1999054 C8.66582394 424.53432804 7.77040112 420.87070937 6.875 417.20703125 C6.24728689 414.62062213 5.62003609 412.03410528 4.9934082 409.44743347 C3.50690288 403.31538899 2.01491194 397.18469377 0.52076244 391.05450791 C-1.30665274 383.55621131 -3.12818623 376.05648942 -4.94921875 368.55664062 C-5.27424314 367.2182756 -5.5992706 365.87991131 -5.92430115 364.54154778 C-8.43595077 354.19872171 -10.94541006 343.85536459 -13.45167542 333.51123238 C-14.80871497 327.91050544 -16.16729404 322.31017385 -17.53222656 316.71136475 C-18.64547336 312.1440513 -19.751535 307.57506926 -20.85092163 303.00440025 C-21.23549559 301.41111864 -21.62279051 299.81849079 -22.01309204 298.22660255 C-22.53565065 296.09377067 -23.0483942 293.95881446 -23.55859375 291.82299805 C-23.84017334 290.66108444 -24.12175293 289.49917084 -24.41186523 288.30204773 C-25.97568582 279.52206988 -25.97568582 279.52206988 -23.4375 275.5625 C-20.11598609 273.43332442 -17.87338754 273.57744863 -14 274 C-10.00391011 276.66405993 -9.7650751 279.58256527 -8.70385742 284.01538086 C-8.49330058 284.85473395 -8.28274374 285.69408705 -8.06580639 286.55887508 C-7.36476963 289.36966505 -6.68177189 292.18447969 -6 295 C-5.5159925 296.96847121 -5.0314958 298.93682219 -4.54653931 300.90505981 C-2.92435396 307.5166797 -1.33086871 314.13510633 0.26171875 320.75390625 C0.85822937 323.22692004 1.45489733 325.69989588 2.05171204 328.1728363 C3.29925888 333.34385991 4.54559121 338.51517378 5.79077148 343.68676758 C7.35421278 350.18016575 8.9199676 356.67300374 10.4865551 363.16564369 C11.71364763 368.25179238 12.9398521 373.33815496 14.1659584 378.42454147 C14.77008655 380.9300665 15.37450367 383.43552187 15.97921371 385.94090652 C19.03096094 398.58566692 22.06592847 411.2334295 25.01806641 423.90185547 C25.48074828 425.87884602 25.9435388 427.85581116 26.40644836 429.83274841 C27.25032339 433.43727901 28.0831698 437.04410267 28.90934753 440.65272522 C29.28004107 442.23985574 29.65113398 443.82689306 30.02270508 445.41381836 C30.1804648 446.11778433 30.33822453 446.8217503 30.50076485 447.54704857 C31.60429341 452.20131776 32.89286648 456.40148492 36.8125 459.375 C39.95230664 460.27208761 41.88835221 459.97238994 45 459 C56.81334506 446.39460254 54.70379646 426.76509901 54.61010408 410.83149695 C54.59563013 407.32419916 54.61212107 403.81704973 54.62582397 400.30976868 C54.65012499 392.94105056 54.64457337 385.57259213 54.63201904 378.20385742 C54.61329672 367.06878639 54.61827068 355.93376057 54.65205324 344.79872543 C54.66355465 340.63301429 54.65915034 336.46771338 54.64203286 332.3020252 C54.63230135 329.11629711 54.64130136 325.93060537 54.64697266 322.74487305 C54.63303719 321.01744118 54.63303719 321.01744118 54.61882019 319.25511169 C54.62678871 317.6807132 54.62678871 317.6807132 54.63491821 316.07450867 C54.63303308 315.16151347 54.63114796 314.24851828 54.6292057 313.30785656 C55.07269195 310.54755884 55.79521899 309.66605407 58 308 C60.704594 307.44381333 63.27736823 307.57370066 66 308 C68.67431489 309.81163267 68.95920359 310.87761077 70 314 C70.09130085 315.69179304 70.12464973 317.38698293 70.12457275 319.08123779 C70.12713577 320.13228195 70.12969879 321.18332611 70.13233948 322.26622009 C70.13023972 323.41941238 70.12813995 324.57260468 70.12597656 325.76074219 C70.12877876 327.58331291 70.12877876 327.58331291 70.13163757 329.44270325 C70.13564734 332.08801663 70.13799068 334.73328188 70.13809967 337.37859344 C70.13924255 341.57520958 70.15210315 345.7717382 70.16766357 349.96832275 C70.17023643 350.67779674 70.17280928 351.38727073 70.1754601 352.11824393 C70.18072715 353.56942756 70.18601263 355.02061111 70.19131613 356.47179461 C70.22633695 366.2388591 70.25299083 376.00581668 70.25048828 385.77294922 C70.24889049 392.36326325 70.26515446 398.95327947 70.30119491 405.54349828 C70.31951807 409.02443942 70.32912007 412.50488439 70.31671906 415.98586273 C69.63128796 436.68598293 69.63128796 436.68598293 76 456 C78.32928131 458.42064422 78.32928131 458.42064422 81 460 C84.3160654 459.94282646 86.76537187 459.82622599 89.56762695 457.95092773 C91.79825758 454.91275331 92.42884018 451.45549465 93.29296875 447.84765625 C93.51196838 446.9699054 93.73096802 446.09215454 93.956604 445.18780518 C94.71113824 442.14862079 95.44934524 439.10570138 96.1875 436.0625 C96.73192276 433.85101261 97.27695078 431.63967416 97.82250977 429.4284668 C99.90454747 420.95782281 101.95398249 412.47940128 104 404 C104.22263519 403.07748444 104.44527039 402.15496887 104.6746521 401.20449829 C111.86474435 371.40588805 119.00843594 341.59619045 126.13820744 311.78309917 C127.97615393 304.09823973 129.81663586 296.41399309 131.66015625 288.73046875 C131.89375351 287.75628494 132.12735077 286.78210114 132.36802673 285.77839661 C132.57536942 284.91461899 132.7827121 284.05084137 132.99633789 283.16088867 C133.16887589 282.44196945 133.34141388 281.72305023 133.5191803 280.98234558 C133.6778508 280.32817154 133.8365213 279.6739975 134 279 C134.12382553 278.27480667 134.24765106 277.54961334 134.37522888 276.80244446 C134.58140335 276.20763779 134.78757782 275.61283112 135 275 C138.59264452 273.80245183 141.22717474 273.66905042 145 274 C147.4375 275.5 147.4375 275.5 149 278 C149.36867125 284.00975729 148.49697649 289.18749379 147.03491211 294.99633789 C146.8246489 295.8630716 146.61438568 296.72980532 146.39775085 297.62280369 C145.69956749 300.49160442 144.98845757 303.35703585 144.27734375 306.22265625 C143.77874366 308.26097355 143.28100515 310.29950177 142.78407288 312.33822632 C141.72667293 316.66938143 140.66377962 320.99913518 139.59643555 325.32785034 C137.93426614 332.06983281 136.2850557 338.81493868 134.63867188 345.56079102 C132.99013693 352.31359484 131.34127847 359.06631533 129.68832397 365.81803894 C125.39846621 383.34190943 121.14637788 400.87441294 116.95901489 418.42306519 C116.32248133 421.09013048 115.68333533 423.7565471 115.04171753 426.4223938 C114.16930141 430.05010518 113.30250867 433.67911013 112.4375 437.30859375 C112.05961082 438.87327896 112.05961082 438.87327896 111.67408752 440.46957397 C111.45034958 441.41474884 111.22661163 442.35992371 110.99609375 443.33374023 C110.80200928 444.14544174 110.6079248 444.95714325 110.40795898 445.79344177 C109.87879758 448.28156423 109.87879758 448.28156423 110 452 C118.0414393 452.0698388 126.08274961 452.12298174 134.12441826 452.15543652 C137.8594225 452.17102157 141.59421763 452.19212684 145.32910156 452.22631836 C148.94067535 452.25917009 152.55204934 452.2769067 156.16376114 452.28463173 C157.5343248 452.29012936 158.90487885 452.30086348 160.27535629 452.31719017 C171.63933888 452.44705522 181.14446595 451.80171054 189.59375 443.6796875 C194.27979877 438.46113319 198.36406018 432.80281631 202.45947266 427.11669922 C203.9811062 425.02596027 205.53620779 422.96531791 207.10546875 420.91015625 C207.60256348 420.25281494 208.0996582 419.59547363 208.61181641 418.91821289 C209.54661084 417.68215099 210.48726851 416.45049068 211.43505859 415.22436523 C216.71823436 408.14907695 218.59664198 401.80302865 218 393 C217.51473034 389.96966898 216.78516526 387.03175817 216.0065918 384.06469727 C215.79284723 383.21499107 215.57910267 382.36528488 215.358881 381.48983002 C214.64915515 378.67933296 213.92427864 375.8729829 213.19921875 373.06640625 C212.69018223 371.06390698 212.18208079 369.06116982 211.67485046 367.05821228 C210.30914356 361.67657946 208.93021726 356.29841474 207.54875946 350.92080688 C206.10044451 345.273396 204.66450982 339.62283804 203.22705078 333.97265625 C200.08827853 321.64531472 196.93213021 309.32246643 193.7700882 297.00107574 C192.83099636 293.34138359 191.89267619 289.68149388 190.95438671 286.02159595 C187.86738446 273.98121261 184.77729092 261.94162275 181.67633724 249.90482426 C174.95734409 223.82280484 168.35421509 197.71208651 161.76768112 171.59634018 C153.96048557 140.64173454 146.0808938 109.70667716 138.11328125 78.79296875 C137.38655417 75.97269863 136.66000245 73.15238339 135.93359375 70.33203125 C135.76193569 69.6656728 135.59027763 68.99931435 135.41341782 68.31276321 C132.21475794 55.89032421 129.08524276 43.4510736 126 31 C125.34 31 124.68 31 124 31 C122.74966403 32.57716239 121.57557958 34.21501322 120.4375 35.875 C116.33760978 41.65346847 111.84694011 46.8423586 107 52 C106.46117187 52.61488281 105.92234375 53.22976562 105.3671875 53.86328125 C96.89293057 63.12534599 82.66012582 72.1013266 69.90039062 73.17700195 C59.32959038 73.46565196 49.73618172 73.69297968 40 69 C39.03191406 68.53722656 38.06382812 68.07445312 37.06640625 67.59765625 C22.37525248 59.7840257 10.48843684 46.55103189 1.34765625 32.87109375 C0.90292969 32.25363281 0.45820313 31.63617188 0 31 C-0.33 31 -0.66 31 -1 31 Z " fill="#000000" transform="translate(261,18)"/>
<path d="M0 0 C4.29816086 3.05000498 7.47270301 7.12376235 8.7890625 12.26953125 C9.60506716 18.79756855 8.61189866 23.86564557 4.7890625 29.26953125 C0.47128171 34.04819876 -4.24588141 35.99498902 -10.5859375 36.58203125 C-16.77859968 36.04818106 -21.32693677 34.6408958 -25.5859375 29.95703125 C-29.62090965 24.72691789 -30.77854631 19.85379345 -30.2109375 13.26953125 C-28.8096714 6.70905815 -25.70556316 2.99802724 -20.2109375 -0.73046875 C-13.75912903 -4.46572628 -6.29918222 -3.55113261 0 0 Z " fill="#000000" transform="translate(372.2109375,138.73046875)"/>
<path d="M0 0 C4.29816086 3.05000498 7.47270301 7.12376235 8.7890625 12.26953125 C9.60506716 18.79756855 8.61189866 23.86564557 4.7890625 29.26953125 C0.47128171 34.04819876 -4.24588141 35.99498902 -10.5859375 36.58203125 C-16.77859968 36.04818106 -21.32693677 34.6408958 -25.5859375 29.95703125 C-29.62090965 24.72691789 -30.77854631 19.85379345 -30.2109375 13.26953125 C-28.8096714 6.70905815 -25.70556316 2.99802724 -20.2109375 -0.73046875 C-13.75912903 -4.46572628 -6.29918222 -3.55113261 0 0 Z " fill="#000000" transform="translate(295.2109375,138.73046875)"/>
<path d="M0 0 C2.8153624 1.97075368 3.34547136 3.71507536 4 7 C4.24712316 10.788473 4.23111575 14.57926672 4.25 18.375 C4.270625 19.40367187 4.29125 20.43234375 4.3125 21.4921875 C4.34114474 27.04926706 4.26744696 31.25744349 1 36 C-2.12942465 37.56471233 -5.61082223 37.69701958 -9 37 C-11.89604016 34.77178434 -12.90159001 33.59879245 -13.50170898 29.94726562 C-13.49892944 28.19446289 -13.49892944 28.19446289 -13.49609375 26.40625 C-13.49673828 25.12878906 -13.49738281 23.85132813 -13.49804688 22.53515625 C-13.48765381 21.87273926 -13.47726074 21.21032227 -13.46655273 20.52783203 C-13.43758598 18.50600102 -13.44595065 16.48679328 -13.45898438 14.46484375 C-13.38618521 3.36577151 -13.38618521 3.36577151 -10 0 C-6.22941703 -1.25686099 -3.86146303 -0.82745636 0 0 Z " fill="#000000" transform="translate(328,198)"/>
</svg>
